<svg xmlns="http://www.w3.org/2000/svg" version="1.1" xmlns:xlink="http://www.w3.org/1999/xlink" xmlns:svgjs="http://svgjs.dev/svgjs" width="1500" height="1500" viewBox="0 0 1500 1500"><rect width="1500" height="1500" fill="#ffffff"></rect><g transform="matrix(0.6666666666666666,0,0,0.6666666666666666,249.39393939393938,670.2425345394702)"><svg viewBox="0 0 396 63" data-background-color="#ffffff" preserveAspectRatio="xMidYMid meet" height="238" width="1500" xmlns="http://www.w3.org/2000/svg" xmlns:xlink="http://www.w3.org/1999/xlink"><g id="tight-bounds" transform="matrix(1,0,0,1,0.2400000000000091,0.16840540344563237)"><svg viewBox="0 0 395.52 62.663189193108714" height="62.663189193108714" width="395.52"><g><svg viewBox="0 0 532.6444726915464 84.388150700177" height="62.663189193108714" width="395.52"><g transform="matrix(1,0,0,1,137.1244726915464,4.960942606725666)"><svg viewBox="0 0 395.52 74.46626548672566" height="74.46626548672566" width="395.52"><g id="textblocktransform"><svg viewBox="0 0 395.52 74.46626548672566" height="74.46626548672566" width="395.52" id="textblock"><g><svg viewBox="0 0 395.52 74.46626548672566" height="74.46626548672566" width="395.52"><g transform="matrix(1,0,0,1,0,0)"><svg width="395.52" viewBox="3.22 -39.84 220.69 41.550000000000004" height="74.46626548672566" data-palette-color="#ee3e38"><path d="M27.71-20.07L27.71-20.07Q27.61-19.7 27.34-19.02 27.08-18.33 26.73-17.47 26.39-16.6 25.98-15.64 25.56-14.67 25.17-13.75L25.17-13.75Q25-13.33 24.77-13.13 24.54-12.94 23.83-12.92L23.83-12.92 16.7-12.79 15.82-1.95Q15.8-1.73 15.7-1.53 15.6-1.32 15.41-1.2L15.41-1.2Q15.33-1.15 14.83-0.92 14.33-0.68 13.57-0.37 12.82-0.05 11.91 0.32 11.01 0.68 10.13 0.99 9.25 1.29 8.52 1.5 7.79 1.71 7.37 1.71L7.37 1.71Q6.88 1.71 6.48 1.53 6.08 1.34 6.08 0.78L6.08 0.78Q6.05-0.44 6.14-1.92 6.23-3.39 6.35-4.92 6.47-6.45 6.62-7.92 6.76-9.4 6.86-10.62L6.86-10.62 7.03-12.67Q4.98-12.67 4.1-12.78 3.22-12.89 3.22-13.35L3.22-13.35Q3.22-13.67 3.59-14.18L3.59-14.18Q4.1-14.89 4.75-15.89 5.4-16.89 5.99-17.85 6.59-18.8 7.04-19.53 7.5-20.26 7.62-20.43L7.62-20.43 8.08-27.15Q7.62-27.15 7.28-27.14 6.93-27.12 6.65-27.11 6.37-27.1 6.13-27.09 5.88-27.08 5.62-27.08L5.62-27.08Q4.44-27.08 3.94-27.21 3.44-27.34 3.44-27.71L3.44-27.71Q3.44-27.88 3.74-28.42 4.03-28.96 4.46-29.65 4.88-30.35 5.38-31.12 5.88-31.88 6.27-32.54L6.27-32.54 7.74-35.03 18.85-35.42Q21-35.5 23.12-35.58 25.24-35.67 27.04-35.74 28.83-35.82 30.13-35.88 31.42-35.94 31.93-35.96L31.93-35.96Q31.96-35.96 32.07-35.95 32.18-35.94 32.3-35.88 32.42-35.82 32.53-35.67 32.64-35.52 32.64-35.25L32.64-35.25Q32.64-35.11 32.3-34.28 31.96-33.45 31.32-31.81L31.32-31.81 30.25-28.98Q30.08-28.56 29.86-28.34 29.64-28.13 28.93-28.1L28.93-28.1Q28.1-28.08 27.25-28.03 26.39-27.98 25.49-27.93L25.49-27.93 18.07-27.56Q17.92-26.61 17.86-26.15 17.8-25.68 17.79-25.38 17.77-25.07 17.77-24.77 17.77-24.46 17.75-23.8L17.75-23.8Q17.72-23.34 17.69-23.02 17.65-22.71 17.61-22.4 17.58-22.09 17.54-21.75 17.5-21.41 17.48-20.9L17.48-20.9Q19.09-20.95 20.64-21 22.19-21.04 23.5-21.09 24.8-21.14 25.76-21.18 26.71-21.22 27.1-21.22L27.1-21.22Q27.29-21.22 27.54-21.07 27.78-20.92 27.78-20.51L27.78-20.51Q27.78-20.31 27.71-20.07ZM32.74-10.35L32.74-10.35Q33.05-13.7 33.37-16.97 33.69-20.24 33.93-23.68L33.93-23.68Q33.98-24.49 34.09-24.79 34.2-25.1 34.64-25.2L34.64-25.2Q36.72-25.61 38.99-26.06 41.26-26.51 43.38-27.22L43.38-27.22Q43.45-27.25 43.6-27.25L43.6-27.25Q43.87-27.25 43.87-27.05L43.87-27.05 41.67-3.27Q41.6-2.47 41.5-2.16 41.4-1.86 40.96-1.76L40.96-1.76Q38.89-1.12 36.77-0.34 34.64 0.44 32.27 1.25L32.27 1.25Q32.2 1.27 32.05 1.27L32.05 1.27Q31.78 1.27 31.78 1.03L31.78 1.03Q31.78 1 31.83 0.37 31.88-0.27 31.97-1.27 32.05-2.27 32.15-3.52 32.25-4.76 32.36-6.01 32.47-7.25 32.57-8.4 32.66-9.55 32.74-10.35ZM34.57-29.83L34.57-29.83Q34.64-30.88 34.68-31.45 34.71-32.01 34.74-32.29 34.76-32.57 34.76-32.64 34.76-32.71 34.78-32.75 34.79-32.79 34.8-32.9 34.81-33.01 34.84-33.36 34.86-33.72 34.91-34.4 34.96-35.08 35.06-36.28L35.06-36.28Q35.1-37.08 35.21-37.39 35.32-37.7 35.76-37.79L35.76-37.79Q37.84-38.21 40.11-38.66 42.38-39.11 44.5-39.82L44.5-39.82Q44.58-39.84 44.72-39.84L44.72-39.84Q44.8-39.7 44.92-39.65L44.92-39.65 44.99-39.6 44.46-32.91Q44.38-32.1 44.27-31.79 44.16-31.47 43.75-31.4L43.75-31.4Q41.67-31.01 39.55-30.54 37.42-30.08 35.06-29.61L35.06-29.61Q34.98-29.59 34.84-29.59L34.84-29.59Q34.57-29.59 34.57-29.83ZM64.74-18.82L60.2-18.82Q59.86-16.26 59.55-13.71 59.25-11.16 59.17-8.94L59.17-8.94Q59.17-7.98 59.32-7.35 59.47-6.71 59.75-6.35 60.03-5.98 60.42-5.82 60.81-5.66 61.3-5.66L61.3-5.66Q62.08-5.66 63.01-5.9 63.94-6.13 64.86-6.49L64.86-6.49Q65.16-6.62 65.36-6.68 65.57-6.74 65.72-6.74L65.72-6.74Q65.96-6.74 66.05-6.52 66.13-6.3 66.22-5.75 66.3-5.2 66.47-4.27 66.65-3.34 67.04-1.93L67.04-1.93Q67.06-1.81 67.07-1.72 67.08-1.64 67.08-1.56L67.08-1.56Q67.08-1.22 66.83-1.07 66.57-0.93 65.99-0.73L65.99-0.73Q64.99-0.39 63.87-0.04 62.76 0.32 61.68 0.61 60.59 0.9 59.59 1.09 58.59 1.27 57.83 1.27L57.83 1.27Q53.75 1.27 51.89-0.76 50.02-2.78 50.02-6.93L50.02-6.93Q50.02-7.64 50.07-8.39 50.12-9.13 50.19-9.94L50.19-9.94Q50.43-12.38 50.62-14.56 50.8-16.75 51-18.75L51-18.75 48.43-18.75Q47.11-18.75 46.53-18.86 45.94-18.97 45.94-19.31L45.94-19.31Q45.94-19.41 46.19-19.84 46.43-20.26 46.81-20.86 47.19-21.46 47.63-22.14 48.07-22.83 48.47-23.43 48.87-24.02 49.16-24.46 49.46-24.9 49.53-25L49.53-25 51.26-25Q51.48-26.86 51.62-28.11 51.75-29.37 51.84-30.2 51.92-31.03 52-31.48 52.07-31.93 52.16-32.15 52.24-32.37 52.38-32.43 52.51-32.5 52.73-32.54L52.73-32.54Q53.83-32.76 54.85-32.95 55.88-33.13 56.9-33.33 57.93-33.52 58.99-33.78 60.05-34.03 61.2-34.38L61.2-34.38Q61.27-34.38 61.3-34.39 61.32-34.4 61.4-34.4L61.4-34.4Q61.69-34.4 61.69-34.2L61.69-34.2 61.69-34.16Q61.57-32.81 61.31-30.42 61.05-28.03 60.74-25L60.74-25 67.28-25Q67.48-25 67.66-24.87 67.84-24.73 67.84-24.41L67.84-24.41Q67.84-24.29 67.55-23.54 67.26-22.78 66.72-21.56L66.72-21.56 65.84-19.58Q65.67-19.21 65.49-19.04 65.3-18.87 64.74-18.82L64.74-18.82ZM93.38-20.07L93.38-20.07Q93.28-19.7 93.01-19.02 92.74-18.33 92.4-17.47 92.06-16.6 91.64-15.64 91.23-14.67 90.84-13.75L90.84-13.75Q90.67-13.33 90.43-13.13 90.2-12.94 89.49-12.92L89.49-12.92 82.37-12.79 81.49-1.95Q81.46-1.73 81.36-1.53 81.27-1.32 81.07-1.2L81.07-1.2Q81-1.15 80.5-0.92 80-0.68 79.24-0.37 78.48-0.05 77.58 0.32 76.68 0.68 75.8 0.99 74.92 1.29 74.19 1.5 73.45 1.71 73.04 1.71L73.04 1.71Q72.55 1.71 72.15 1.53 71.75 1.34 71.75 0.78L71.75 0.78Q71.72-0.44 71.81-1.92 71.89-3.39 72.01-4.92 72.14-6.45 72.28-7.92 72.43-9.4 72.53-10.62L72.53-10.62 72.7-12.67Q70.65-12.67 69.77-12.78 68.89-12.89 68.89-13.35L68.89-13.35Q68.89-13.67 69.26-14.18L69.26-14.18Q69.77-14.89 70.41-15.89 71.06-16.89 71.66-17.85 72.26-18.8 72.71-19.53 73.16-20.26 73.28-20.43L73.28-20.43 73.75-27.15Q73.28-27.15 72.94-27.14 72.6-27.12 72.32-27.11 72.04-27.1 71.79-27.09 71.55-27.08 71.28-27.08L71.28-27.08Q70.11-27.08 69.61-27.21 69.11-27.34 69.11-27.71L69.11-27.71Q69.11-27.88 69.4-28.42 69.69-28.96 70.12-29.65 70.55-30.35 71.05-31.12 71.55-31.88 71.94-32.54L71.94-32.54 73.41-35.03 84.51-35.42Q86.66-35.5 88.79-35.58 90.91-35.67 92.7-35.74 94.5-35.82 95.79-35.88 97.09-35.94 97.6-35.96L97.6-35.96Q97.62-35.96 97.73-35.95 97.84-35.94 97.97-35.88 98.09-35.82 98.2-35.67 98.31-35.52 98.31-35.25L98.31-35.25Q98.31-35.11 97.97-34.28 97.62-33.45 96.99-31.81L96.99-31.81 95.92-28.98Q95.74-28.56 95.52-28.34 95.31-28.13 94.6-28.1L94.6-28.1Q93.77-28.08 92.91-28.03 92.06-27.98 91.15-27.93L91.15-27.93 83.73-27.56Q83.59-26.61 83.53-26.15 83.46-25.68 83.45-25.38 83.44-25.07 83.44-24.77 83.44-24.46 83.42-23.8L83.42-23.8Q83.39-23.34 83.35-23.02 83.32-22.71 83.28-22.4 83.24-22.09 83.21-21.75 83.17-21.41 83.15-20.9L83.15-20.9Q84.76-20.95 86.31-21 87.86-21.04 89.16-21.09 90.47-21.14 91.42-21.18 92.38-21.22 92.77-21.22L92.77-21.22Q92.96-21.22 93.21-21.07 93.45-20.92 93.45-20.51L93.45-20.51Q93.45-20.31 93.38-20.07ZM124.16-27L121.87-3.03Q121.79-2.22 121.67-1.92 121.55-1.61 121.13-1.51L121.13-1.51Q119.06-0.93 116.8-0.33 114.54 0.27 112.42 1.25L112.42 1.25Q112.34 1.27 112.2 1.27L112.2 1.27Q112 1.27 111.97 1.17 111.93 1.07 111.93 0.95L111.93 0.95Q111.93 0.9 111.94 0.78 111.95 0.66 112 0.33 112.05 0 112.14-0.59 112.22-1.17 112.37-2.15L112.37-2.15Q109.63-0.37 107.52 0.45 105.41 1.27 103.77 1.27L103.77 1.27Q99.7 1.27 97.83-0.7 95.96-2.66 95.96-6.57L95.96-6.57Q95.96-7.28 95.99-8.02 96.01-8.76 96.13-9.55L96.13-9.55Q96.4-12.43 96.6-14.49 96.79-16.55 96.91-17.99 97.04-19.43 97.12-20.35 97.21-21.26 97.27-21.88 97.33-22.49 97.37-22.89 97.4-23.29 97.45-23.68L97.45-23.68Q97.55-24.46 97.63-24.78 97.72-25.1 98.18-25.2L98.18-25.2Q99.33-25.42 100.37-25.6 101.41-25.78 102.42-25.99 103.43-26.2 104.48-26.44 105.53-26.68 106.7-27.03L106.7-27.03Q106.75-27.03 106.8-27.04 106.85-27.05 106.9-27.05L106.9-27.05Q107.19-27.05 107.19-26.86L107.19-26.86 107.19-26.81Q107.09-25.98 107.02-25.24 106.95-24.51 106.87-23.74 106.8-22.97 106.72-22.09 106.63-21.22 106.51-20.06 106.39-18.9 106.22-17.38 106.04-15.87 105.8-13.87L105.8-13.87Q105.65-12.4 105.51-10.95 105.36-9.5 105.36-8.25L105.36-8.25Q105.36-7.57 105.46-6.99 105.56-6.42 105.81-6.02 106.07-5.62 106.48-5.4 106.9-5.18 107.56-5.18L107.56-5.18Q108.07-5.18 108.95-5.41 109.83-5.64 110.71-6.21 111.59-6.79 112.26-7.73 112.93-8.67 113.03-10.11L113.03-10.11Q113.2-12.52 113.33-14.15 113.47-15.77 113.56-16.88 113.66-17.99 113.74-18.75 113.81-19.51 113.87-20.2 113.93-20.9 113.98-21.69 114.03-22.49 114.08-23.68L114.08-23.68Q114.15-24.49 114.26-24.79 114.37-25.1 114.81-25.2L114.81-25.2Q117.03-25.63 119.35-26.09 121.67-26.54 123.89-27.25L123.89-27.25Q124.09-27.25 124.12-27.19 124.16-27.12 124.16-27L124.16-27ZM127.75-0.07L127.43-6.74Q127.43-6.76 127.42-6.77 127.4-6.79 127.4-6.81L127.4-6.81Q127.4-7.13 127.75-7.13L127.75-7.13Q127.97-7.13 128.14-6.96L128.14-6.96Q129.11-6.03 130.37-5.44 131.63-4.86 133.09-4.86L133.09-4.86Q133.48-4.86 134-4.94 134.51-5.03 134.97-5.22 135.44-5.42 135.74-5.75 136.05-6.08 136.05-6.57L136.05-6.57Q136.05-7.1 135.78-7.56 135.51-8.01 135.07-8.3L135.07-8.3Q134.83-8.47 134.22-8.9 133.61-9.33 132.91-9.81 132.21-10.3 131.59-10.74 130.97-11.18 130.72-11.38L130.72-11.38Q129.63-12.21 128.98-13.06 128.33-13.92 127.99-14.83 127.65-15.75 127.55-16.75 127.45-17.75 127.45-18.87L127.45-18.87Q127.45-20.58 128.36-22.09 129.26-23.61 130.74-24.76 132.21-25.9 134.09-26.57 135.97-27.25 137.93-27.25L137.93-27.25Q139.54-27.25 141.1-26.76 142.66-26.27 144.01-25.1L144.01-25.1Q144.13-23.56 144.18-22.07 144.23-20.58 144.32-18.95L144.32-18.95Q144.32-18.63 144.18-18.52 144.03-18.41 143.84-18.41L143.84-18.41Q143.66-18.41 143.54-18.53L143.54-18.53Q142.98-19.07 142.39-19.59 141.81-20.12 141.16-20.52 140.51-20.92 139.78-21.18 139.05-21.44 138.22-21.44L138.22-21.44Q137.71-21.44 137.19-21.35 136.68-21.26 136.27-21.03 135.85-20.8 135.6-20.41 135.34-20.02 135.34-19.41L135.34-19.41Q135.34-18.7 135.51-18.19 135.68-17.68 136.32-17.19L136.32-17.19 140.86-14.11Q142.1-13.26 142.87-12.44 143.64-11.62 144.08-10.82 144.52-10.01 144.68-9.22 144.84-8.42 144.84-7.64L144.84-7.64Q144.84-5.44 143.82-3.77 142.81-2.1 141.2-0.99 139.59 0.12 137.55 0.7 135.51 1.27 133.46 1.27L133.46 1.27Q131.9 1.27 130.44 0.94 128.99 0.61 127.75-0.07L127.75-0.07ZM148.96-10.35L148.96-10.35Q149.28-13.7 149.59-16.97 149.91-20.24 150.16-23.68L150.16-23.68Q150.2-24.49 150.31-24.79 150.42-25.1 150.86-25.2L150.86-25.2Q152.94-25.61 155.21-26.06 157.48-26.51 159.6-27.22L159.6-27.22Q159.68-27.25 159.82-27.25L159.82-27.25Q160.09-27.25 160.09-27.05L160.09-27.05 157.9-3.27Q157.82-2.47 157.72-2.16 157.63-1.86 157.19-1.76L157.19-1.76Q155.11-1.12 152.99-0.34 150.86 0.44 148.5 1.25L148.5 1.25Q148.42 1.27 148.28 1.27L148.28 1.27Q148.01 1.27 148.01 1.03L148.01 1.03Q148.01 1 148.06 0.37 148.11-0.27 148.19-1.27 148.28-2.27 148.37-3.52 148.47-4.76 148.58-6.01 148.69-7.25 148.79-8.4 148.89-9.55 148.96-10.35ZM150.79-29.83L150.79-29.83Q150.86-30.88 150.9-31.45 150.94-32.01 150.96-32.29 150.99-32.57 150.99-32.64 150.99-32.71 151-32.75 151.01-32.79 151.02-32.9 151.03-33.01 151.06-33.36 151.08-33.72 151.13-34.4 151.18-35.08 151.28-36.28L151.28-36.28Q151.33-37.08 151.44-37.39 151.55-37.7 151.99-37.79L151.99-37.79Q154.06-38.21 156.33-38.66 158.6-39.11 160.73-39.82L160.73-39.82Q160.8-39.84 160.95-39.84L160.95-39.84Q161.02-39.7 161.14-39.65L161.14-39.65 161.22-39.6 160.68-32.91Q160.61-32.1 160.5-31.79 160.39-31.47 159.97-31.4L159.97-31.4Q157.9-31.01 155.77-30.54 153.65-30.08 151.28-29.61L151.28-29.61Q151.21-29.59 151.06-29.59L151.06-29.59Q150.79-29.59 150.79-29.83ZM176.69 1.27L176.69 1.27Q173.25 1.27 170.65 0.15 168.05-0.98 166.29-2.84 164.53-4.71 163.65-7.14 162.78-9.57 162.78-12.18L162.78-12.18Q162.78-14.79 163.63-17.15 164.48-19.51 166.02-21.37 167.56-23.24 169.71-24.5 171.86-25.76 174.45-26.2L174.45-26.2Q174.84-26.22 174.84-26.37L174.84-26.37Q174.84-26.64 174.77-26.87 174.71-27.1 174.71-27.27L174.71-27.27Q174.71-27.54 174.81-27.64 174.91-27.73 175.03-27.73L175.03-27.73Q179.69-27.73 182.97-26.67 186.24-25.61 188.29-23.78 190.34-21.95 191.27-19.46 192.19-16.97 192.19-14.11L192.19-14.11Q192.19-10.47 190.97-7.62 189.75-4.76 187.64-2.78 185.53-0.81 182.71 0.23 179.89 1.27 176.69 1.27ZM172.17-12.45L172.17-12.45Q172.17-11.13 172.46-9.84 172.74-8.54 173.38-7.5 174.03-6.45 175.08-5.8 176.13-5.15 177.69-5.15L177.69-5.15Q178.82-5.2 179.66-5.65 180.5-6.1 181.11-6.82 181.72-7.54 182.12-8.45 182.53-9.35 182.76-10.31 182.99-11.28 183.09-12.21 183.19-13.13 183.19-13.89L183.19-13.89Q183.19-15.16 182.81-16.38 182.43-17.6 181.7-18.53 180.96-19.46 179.88-20.03 178.79-20.61 177.38-20.61L177.38-20.61Q175.91-20.61 174.91-19.74 173.91-18.87 173.31-17.6 172.71-16.33 172.44-14.93 172.17-13.53 172.17-12.45ZM221.51-0.78L215.58 0.88Q215.31 0.95 214.87 1.11 214.43 1.27 214.02 1.27L214.02 1.27Q213.68 1.27 213.42 1.1 213.16 0.93 213.16 0.51L213.16 0.51 213.16 0.37Q213.31-0.95 213.41-1.87 213.51-2.78 213.59-3.53 213.68-4.27 213.74-5.02 213.8-5.76 213.9-6.75 213.99-7.74 214.13-9.09 214.26-10.45 214.46-12.48L214.46-12.48Q214.58-13.72 214.68-15.01 214.77-16.31 214.77-17.41L214.77-17.41Q214.77-18.14 214.67-18.76 214.56-19.38 214.27-19.84 213.99-20.29 213.51-20.53 213.02-20.78 212.26-20.78L212.26-20.78Q211.7-20.78 210.71-20.53 209.72-20.29 208.74-19.73 207.77-19.17 207.01-18.25 206.25-17.33 206.16-15.99L206.16-15.99Q206.01-14.18 205.89-12.9 205.77-11.62 205.67-10.73 205.57-9.84 205.51-9.28 205.45-8.72 205.42-8.33L205.42-8.33Q205.4-8.23 205.35-7.79 205.3-7.35 205.24-6.74 205.18-6.13 205.12-5.44 205.06-4.76 205-4.15 204.94-3.54 204.9-3.1 204.86-2.66 204.86-2.56L204.86-2.56Q204.86-2.37 204.88-2.23 204.89-2.1 204.89-1.98L204.89-1.98Q204.89-1.78 204.7-1.65 204.52-1.51 203.89-1.34L203.89-1.34 197.42 0.88Q197.15 0.98 196.71 1.12 196.27 1.27 195.85 1.27L195.85 1.27Q195.51 1.27 195.26 1.1 195 0.93 195 0.51L195 0.51 197.22-24.44Q197.29-25.24 197.4-25.55 197.51-25.85 197.95-25.95L197.95-25.95Q200.18-26.39 202.52-26.84 204.86-27.29 207.08-28L207.08-28Q207.28-28 207.32-27.94 207.35-27.88 207.35-27.76L207.35-27.76Q207.35-27.71 207.34-27.61 207.33-27.51 207.27-27.17 207.21-26.83 207.1-26.14 206.99-25.44 206.79-24.19L206.79-24.19Q208.48-25.17 209.95-25.77 211.43-26.37 212.74-26.7 214.04-27.03 215.19-27.14 216.34-27.25 217.34-27.25L217.34-27.25Q220.78-27.25 222.34-25.16 223.91-23.07 223.91-18.9L223.91-18.9Q223.91-18.31 223.88-17.69 223.86-17.07 223.78-16.41L223.78-16.41 222.66-5.91Q222.54-4.88 222.51-4.02 222.49-3.15 222.49-2L222.49-2Q222.49-1.81 222.5-1.67 222.51-1.54 222.51-1.44L222.51-1.44Q222.51-1.22 222.33-1.1 222.15-0.98 221.51-0.78L221.51-0.78Z" opacity="1" transform="matrix(1,0,0,1,0,0)" fill="#ee3e38" class="wordmark-text-0" data-fill-palette-color="primary" id="text-0"></path></svg></g></svg></g></svg></g></svg></g><g><svg viewBox="0 0 119.54477460050217 84.388150700177" height="84.388150700177" width="119.54477460050217"><g><svg xmlns="http://www.w3.org/2000/svg" xmlns:xlink="http://www.w3.org/1999/xlink" version="1.0" x="0" y="0" viewBox="10 21.764 80 56.473" enable-background="new 0 0 100 100" xml:space="preserve" height="84.388150700177" width="119.54477460050217" class="icon-icon-0" data-fill-palette-color="accent" id="icon-0"><path fill="none" stroke="#5E1914" stroke-linecap="round" stroke-linejoin="round" stroke-miterlimit="10" d="M76.972 30.135c0-1.54 1.252-2.789 2.792-2.789h0.003c3.081 0 5.58 2.5 5.58 5.581v22.331c0 3.077-2.499 5.573-5.583 5.573-1.54 0-2.792-1.245-2.792-2.788V30.135z"></path><path fill="none" stroke="#5E1914" stroke-linecap="round" stroke-linejoin="round" stroke-miterlimit="10" d="M71.392 66.415c3.084 0 5.584-2.5 5.584-5.584V27.347c0-3.08-2.5-5.583-5.584-5.583-1.537 0-2.788 1.251-2.788 2.792v39.068C68.604 65.163 69.854 66.415 71.392 66.415L71.392 66.415z"></path><path fill="none" stroke="#5E1914" stroke-linecap="round" stroke-linejoin="round" stroke-miterlimit="10" d="M23.028 58.046c0 1.537-1.251 2.785-2.792 2.785H20.23c-3.077 0-5.577-2.496-5.577-5.577v-22.33c0-3.077 2.5-5.58 5.583-5.58 1.54 0 2.792 1.251 2.792 2.792V58.046z"></path><path fill="none" stroke="#5E1914" stroke-linecap="round" stroke-linejoin="round" stroke-miterlimit="10" d="M28.605 21.764c-3.083 0-5.583 2.503-5.583 5.58v33.487c0 3.084 2.5 5.584 5.583 5.584 1.54 0 2.792-1.252 2.792-2.789V24.559C31.396 23.015 30.145 21.764 28.605 21.764L28.605 21.764z"></path><rect x="10" y="40.369" fill="none" stroke="#5E1914" stroke-linecap="round" stroke-linejoin="round" stroke-miterlimit="10" width="4.653" height="7.444"></rect><rect x="85.347" y="40.369" fill="none" stroke="#5E1914" stroke-linecap="round" stroke-linejoin="round" stroke-miterlimit="10" width="4.653" height="7.444"></rect><polygon fill="none" stroke="#5E1914" stroke-linecap="round" stroke-linejoin="round" stroke-miterlimit="10" points="  60.118,47.813 60.377,49.46 60.121,47.813 "></polygon><polygon fill="none" stroke="#5E1914" stroke-linecap="round" stroke-linejoin="round" stroke-miterlimit="10" points="  60.118,47.813 60.118,47.813 68.604,47.813 68.604,40.369 58.967,40.369 "></polygon><path fill="none" stroke="#5E1914" stroke-linecap="round" stroke-linejoin="round" stroke-miterlimit="10" d="M65.293 47.813v2.51c0 0.638-0.123 1.249-0.36 1.802-0.236 0.581-0.587 1.1-1.021 1.534v0.013c-0.438 0.432-0.953 0.781-1.533 1.019l-6.403 2.652c-0.577 0.243-1.1 0.59-1.534 1.024v0.01c-0.432 0.435-0.781 0.953-1.021 1.53-0.23 0.558-0.359 1.167-0.359 1.81v16.52H36.617V57.07c-2.643-6.371-2.448-13.213 0-19.121 1.125-1.128 2.95-1.128 4.076 0v-1.618c1.689-1.689 4.429-1.692 6.118 0v-1.018c1.689-1.692 4.429-1.692 6.119 0v0.859c1.479-1.479 3.878-1.482 5.354 0l0.661 4.196 1.174 7.444 0 0H65.293z"></path><path fill="none" stroke="#5E1914" stroke-linecap="round" stroke-linejoin="round" stroke-miterlimit="10" d="M58.967 40.369l-0.681-4.4c0-2.75 2.228-4.98 4.977-4.98v-0.003c0 3.311 0.636 6.462 1.738 9.384H58.967z"></path><path fill="none" stroke="#5E1914" stroke-linecap="round" stroke-linejoin="round" stroke-miterlimit="10" d="M35.764 40.369h-4.368v7.444h3.33C34.697 45.274 35.048 42.765 35.764 40.369z"></path></svg></g></svg></g></svg></g><defs></defs></svg><rect width="395.52" height="62.663189193108714" fill="none" stroke="none" visibility="hidden"></rect></g></svg></g></svg>